<?xml version="1.0" encoding="iso-8859-1"?>
<!-- Uploaded to: SVG Repo, www.svgrepo.com, Generator: SVG Repo Mixer Tools -->
<svg fill="#000000" version="1.1" id="Layer_1" xmlns="http://www.w3.org/2000/svg" xmlns:xlink="http://www.w3.org/1999/xlink" 
	 viewBox="0 0 512 512" xml:space="preserve">
<g>
	<g>
		<path d="M248.37,288.353l-27.119,47.05l-18.862-32.724c14.796-14.199,23.318-33.834,23.318-54.791
			c0-41.93-34.113-76.043-76.043-76.043s-76.043,34.113-76.043,76.043c0,32.361,20.296,60.202,49.099,71.11L52.387,441.027h194.634
			h35.107h54.24L248.37,288.353z M104.038,247.889c0-25.158,20.468-45.626,45.626-45.626s45.626,20.468,45.626,45.626
			c0,9.914-3.182,19.337-8.885,27.059l-19.147-33.22l-29.017,50.343C118.483,286.993,104.038,269.044,104.038,247.889z
			 M105.027,410.609L105.027,410.609l62.23-107.97l10.26,17.801l26.178,45.419l25.793,44.75H105.027z M264.597,410.609
			l-25.793-44.75l9.565-16.596l35.359,61.345H264.597z"/>
	</g>
</g>
<g>
	<g>
		<rect x="98.592" y="66.401" width="191.567" height="30.417"/>
	</g>
</g>
<g>
	<g>
		<rect x="120.341" y="117.096" width="148.071" height="30.417"/>
	</g>
</g>
<g>
	<g>
		<path d="M501.715,10.293c-13.702-13.703-35.997-13.703-49.699,0l-63.27,63.27V0H0.008v512h388.738V172.96L501.715,59.991
			C515.417,46.29,515.417,23.995,501.715,10.293z M30.426,481.583V30.417H358.33v73.563L235.312,226.997v49.699h49.699
			l73.319-73.319v278.206H30.426z M388.748,129.944L388.748,129.944L272.411,246.279h-6.682v-6.682L388.747,116.58l45.657-45.657
			l6.683,6.683L388.748,129.944z M480.207,38.484l-17.614,17.614l-6.683-6.683l17.614-17.614c1.842-1.841,4.839-1.841,6.683,0
			C482.049,33.643,482.049,36.641,480.207,38.484z"/>
	</g>
</g>
</svg>