<?xml version="1.0" encoding="iso-8859-1"?>
<!-- Uploaded to: SVG Repo, www.svgrepo.com, Generator: SVG Repo Mixer Tools -->
<svg fill="#000000" height="800px" width="800px" version="1.1" id="Layer_1" xmlns="http://www.w3.org/2000/svg" xmlns:xlink="http://www.w3.org/1999/xlink" 
	 viewBox="0 0 512 512" xml:space="preserve">
<g>
	<g>
		<polygon points="247.951,349.109 238.4,365.678 264.15,410.353 283.25,410.353 		"/>
	</g>
</g>
<g>
	<g>
		<polygon points="203.35,365.678 203.35,365.677 177.215,320.334 166.973,302.562 104.844,410.353 229.1,410.353 		"/>
	</g>
</g>
<g>
	<g>
		<path d="M149.408,202.352c-25.116,0-45.55,20.434-45.55,45.55c0,21.121,14.421,39.04,34.146,44.11l28.969-50.26l19.115,33.165
			c5.694-7.709,8.87-17.117,8.87-27.014C194.958,222.786,174.524,202.352,149.408,202.352z"/>
	</g>
</g>
<g>
	<g>
		<path d="M236.08,219.074l0.106-12.426l8.786-8.786L388.094,54.743V0.424H0v511.152h388.094v-317.08l-73.245,73.243l-8.786,8.786
			l-12.426,0.106l-27.164,0.233l-30.891,0.265l0.265-30.891L236.08,219.074z M98.42,66.714h191.255v30.367h0H98.42V66.714z
			 M247.951,288.299l87.853,152.421h-54.15h-35.049H52.292l70.217-121.825c-28.756-10.891-49.018-38.685-49.018-70.992
			c0-41.861,34.056-75.917,75.917-75.917s75.917,34.056,75.917,75.917c0,20.922-8.508,40.525-23.279,54.701l18.83,32.67
			L247.951,288.299z M120.133,147.692v-30.367h147.828v30.367H120.133z"/>
	</g>
</g>
<g>
	<g>
		<path d="M506.423,6.292c-3.597-3.597-8.379-5.578-13.466-5.578s-9.868,1.981-13.465,5.577l-17.947,17.947l26.93,26.93
			l17.947-17.947c3.596-3.596,5.577-8.378,5.577-13.465C512,14.67,510.019,9.888,506.423,6.292z"/>
	</g>
</g>
<g>
	<g>
		<polygon points="440.072,45.71 266.446,219.336 266.213,246.499 293.377,246.266 467.004,72.641 		"/>
	</g>
</g>
</svg>